<svg
   width="174.84509mm"
   height="181.19827mm"
   viewBox="0 0 174.84509 181.19827"
   id="svg1">
  <defs id="defs1" />
  <g id="layer1" transform="translate(-0.29709302,-0.13493184)">
    <path
       id="path1"
       style="fill:#ffffff;fill-opacity:1;stroke-width:0.264583"
       d="M 68.030426 0.13493184 C 46.334615 0.13493184 27.019791 10.321406 14.637303 26.19639 L 34.825218 61.1741 C 37.947298 45.669531 51.388152 34.001599 68.030426 34.001599 L 126.71522 34.001599 C 114.99418 13.760994 93.112901 0.13493184 68.030426 0.13493184 z M 9.3725081 33.76337 C 3.6045975 43.949818 0.29709302 55.538688 0.29709302 67.868265 C 0.29709302 96.480181 18.051195 120.95391 43.146157 130.87941 C 42.723139 129.22025 42.347283 127.54874 42.056818 125.86007 C 40.91284 119.56474 40.764992 113.08705 41.724538 106.75736 C 42.284964 101.98016 43.393144 97.257545 45.043716 92.736515 C 42.422158 90.314459 40.176964 87.490728 38.423448 84.352014 L 9.3725081 33.76337 z M 90.440428 42.468265 C 97.451879 48.685973 101.89709 57.761185 101.89709 67.868265 C 101.89709 70.683054 101.51027 73.504442 100.79277 76.230545 C 101.78074 76.032332 102.77452 75.863927 103.76778 75.734452 C 104.45228 75.871387 104.26577 75.052174 104.45508 74.63271 C 107.16891 63.508877 113.42494 53.070009 122.67154 46.182767 C 124.49377 44.998782 126.1833 43.401494 128.38075 42.972627 C 129.35018 42.896977 130.27707 43.463841 130.76148 44.287276 C 131.39732 46.010625 132.22694 47.652447 133.1572 49.236844 C 132.49843 46.927971 131.73324 44.665145 130.84261 42.468265 L 90.440428 42.468265 z M 68.030426 44.584932 C 55.171689 44.584932 44.747093 55.009528 44.747093 67.868265 C 44.747093 73.430472 46.703774 78.532564 49.958144 82.537137 C 50.455838 81.721854 50.958943 80.909576 51.499652 80.120747 C 55.47715 74.492565 60.153292 69.187657 66.035199 65.49425 C 67.518662 64.197144 70.059195 64.153595 71.365107 65.734545 C 71.203468 69.96816 71.101206 74.254641 71.882904 78.437646 C 72.945122 77.500457 73.752354 76.2595 75.017597 75.566503 C 78.215665 72.839641 81.780894 70.559495 85.575609 68.75865 C 86.512824 68.207187 87.803303 68.118186 88.617283 68.941585 C 89.638119 69.859827 89.186718 71.322503 88.863263 72.452481 C 88.32987 74.788259 88.090153 77.176047 88.147028 79.55334 C 90.148339 76.115973 91.31376 72.132357 91.31376 67.868265 C 91.31376 55.009528 80.889163 44.584932 68.030426 44.584932 z M 108.42021 84.045056 C 104.98955 84.055513 101.57192 84.667817 98.331936 85.893005 C 97.581222 86.19884 96.787434 86.560865 95.979108 86.825764 L 94.06553 90.165612 C 98.136429 94.05126 103.38657 96.21802 108.31066 98.751651 C 109.64805 99.286082 111.02971 100.39548 111.00661 101.96644 C 110.77477 104.04451 109.26452 105.68569 107.85487 107.1098 C 105.92353 108.99893 103.84871 111.11004 101.07802 111.60926 C 98.497875 111.75643 96.044464 111.79723 93.500706 112.38338 C 89.135836 113.31267 84.73187 115.54881 82.418695 119.51834 C 81.797759 120.36137 82.122965 121.38693 82.313275 122.31404 C 83.20379 126.13954 85.109897 129.6558 87.673672 132.61212 C 104.2493 127.55448 118.12649 116.39677 126.64907 101.73907 C 125.86746 100.83613 125.03857 99.973146 124.11124 99.209505 C 122.41144 97.675971 120.29525 96.77308 118.36741 95.583886 C 116.89358 94.775286 117.27301 92.403038 118.73689 91.804789 C 121.76403 91.062147 124.96741 91.058516 128.0371 91.579996 C 126.88525 90.546851 125.593 89.559012 124.26059 88.693867 C 121.31594 86.734173 117.9766 85.386695 114.57436 84.674474 C 112.54168 84.249368 110.4786 84.038781 108.42021 84.045056 z " />
    <path
       d="m 74.890256,78.287902 c 0.0529,0.0265 0.0265,0.0265 0,0 z m 92.974574,12.01209 c -2.80458,-6.74688 -8.46666,-14.02292 -12.93812,-16.32479 3.62479,7.11729 5.74146,14.23458 6.53521,19.57916 0,0.0265 0,0.0529 0.0264,0.10584 -7.30245,-18.20334 -19.68495,-25.5323 -29.79203,-41.513126 -3.96875,-6.24417 -2.88396,-6.667502 -3.46604,-6.508752 l -0.0265,0.0265 c -12.35604,6.852712 -19.92311,20.716868 -21.85457,32.464368 -4.39209,0.23813 -8.704794,1.32292 -12.673544,3.20146 -0.37042,0.15875 -0.66146,0.44979 -0.82021,0.79375 -0.18521,0.37042 -0.23813,0.76729 -0.15875,1.13771 0.0529,0.23813 0.15875,0.44979 0.29104,0.60854 0.13229,0.18521 0.3175,0.34396 0.50271,0.44979 0.21166,0.10584 0.42333,0.18521 0.66146,0.21167 0.21166,0 0.44979,-0.0265 0.66145,-0.0794 l 0.1323,-0.0529 c 4.10104,-1.93146 8.572504,-2.96333 13.096874,-3.01625 16.64228,-0.13229 25.71749,11.66813 28.49562,16.48354 -3.43959,-2.40771 -9.63084,-4.81542 -15.58396,-3.78354 23.23041,11.615208 16.98625,51.487928 -15.16062,50.059178 -15.742714,-0.68792 -25.691044,-13.4673 -26.617084,-24.02417 0,0 2.98979,-11.08604 21.325424,-11.08604 1.98437,0 7.67291,-5.5298 7.77875,-7.14376 -0.0265,-0.52916 -11.271254,-5.000628 -15.636884,-9.313338 -2.35479,-2.30187 -3.46604,-3.41312 -4.445,-4.23333 -0.52917,-0.44979 -1.08479,-0.87312 -1.66687,-1.27 -1.48167,-5.15937 -1.53459,-10.60979 -0.18521,-15.76917 -6.61459,3.01625 -11.77396,7.77875 -15.53104,11.98563 h -0.0265 c -2.56646,-3.22792 -2.38125,-13.91708 -2.2225,-16.16604 -0.0529,-0.13229 -1.93146,0.97896 -2.16959,1.16416 -2.27541,1.5875 -4.36562,3.41313 -6.29708,5.3975 -4.31271,4.39209 -11.69458,13.25563 -14.68437,26.775848 -1.21709,5.39749 -1.79917,11.7475 -1.79917,13.83771 0,35.63937 28.8925,64.53187 64.531874,64.53187 31.9352,0 59.00208,-23.07167 63.63229,-53.60458 3.0427,-20.29354 -3.91584,-34.686888 -3.91584,-34.925008 z" />
  </g>
</svg>
